<svg xmlns="http://www.w3.org/2000/svg" viewBox="0 0 400 400" width="400" height="400">
<defs><linearGradient id="g" x1="0" y1="0" x2="1" y2="1"><stop offset="0" stop-color="#eff6ff"/><stop offset="1" stop-color="#bfdbfe"/></linearGradient>
<filter id="s" x="-20%" y="-20%" width="140%" height="140%"><feDropShadow dx="0" dy="12" stdDeviation="14" flood-color="#1d4ed8" flood-opacity="0.25"/></filter></defs>
<rect width="400" height="400" fill="url(#g)"/>
<circle cx="330" cy="70" r="90" fill="#bfdbfe" opacity="0.5"/><circle cx="60" cy="350" r="70" fill="#1d4ed8" opacity="0.08"/>
<g transform="translate(100 80)" filter="url(#s)"><rect x="0" y="0" width="200" height="200" rx="40" fill="#fff"/>
<g fill="none" stroke="#1d4ed8" stroke-width="9" stroke-linecap="round" stroke-linejoin="round"><path d="M40 70h80a30 30 0 0 1 0 60H88l-12 40H56l8-40H40a30 30 0 0 1 0-60z"/><circle cx="118" cy="100" r="14"/><path d="M150 90h20M150 100h24M150 110h20"/></g></g>
<text x="200" y="340" text-anchor="middle" font-family="Inter, Arial, sans-serif" font-size="20" font-weight="600" fill="#1d4ed8" opacity="0.85">HAIR DRYER</text>
</svg>